<?xml version="1.0" encoding="utf-8"?>
<!-- Svg Vector Icons : http://www.sfont.cn -->
<!DOCTYPE svg PUBLIC "-//W3C//DTD SVG 1.1//EN" "http://www.w3.org/Graphics/SVG/1.1/DTD/svg11.dtd">
<svg version="1.1" xmlns="http://www.w3.org/2000/svg" xmlns:xlink="http://www.w3.org/1999/xlink" x="0px" y="0px" viewBox="0 0 1000 1000" enable-background="new 0 0 1000 1000" xml:space="preserve">
<metadata> Svg Vector Icons : http://www.sfont.cn </metadata>
<g><path d="M496.7,313.2c-302.7-0.3-457.2,191-457.2,191L67.3,535c0,0,143.6-173,429.4-174.6C782.5,358.7,915.3,535,915.3,535l20.1-30.7C935.3,504.3,799.4,313.5,496.7,313.2z"/><path d="M483.3,451c-92.1,0-166.8,74.7-166.8,166.8s74.7,166.8,166.8,166.8c92.1,0,166.8-74.7,166.8-166.8S575.5,451,483.3,451z M483.3,746c-70.8,0-128.2-57.4-128.2-128.2c0-70.8,57.4-128.2,128.2-128.2c70.8,0,128.2,57.4,128.2,128.2C611.5,688.6,554.2,746,483.3,746z"/><path d="M71.3,617.7c416,419.2,838.4,0,838.4,0C453.4,209.7,71.3,617.7,71.3,617.7z M119.7,618.1c0,0,337.3-339.9,740,0C859.7,618.1,486.8,967.4,119.7,618.1z"/><path d="M607,350.6l-48.7-8.6l25.8-146l48.7,8.6L607,350.6z"/><path d="M459.8,342.1l-48.7,8.6l-25.8-146l48.7-8.6L459.8,342.1z"/><path d="M143.2,462.5l-37.9,31.8L10,380.7L47.9,349L143.2,462.5L143.2,462.5z"/><path d="M273.4,384L227,400.8l-50.7-139.3l46.4-16.9L273.4,384z"/><path d="M952.1,348.9l37.9,31.8l-95.3,113.6l-37.9-31.8L952.1,348.9L952.1,348.9z"/><path d="M777.3,244.6l46.4,16.9L773,400.9L726.6,384L777.3,244.6L777.3,244.6z"/><path d="M496.7,313.2c-302.7-0.3-457.2,191-457.2,191L67.3,535c0,0,143.6-173,429.4-174.6C782.5,358.7,915.3,535,915.3,535l20.1-30.7C935.3,504.3,799.4,313.5,496.7,313.2z"/></g>
</svg>